<?xml version="1.0" standalone="no"?>
<!DOCTYPE svg PUBLIC "-//W3C//DTD SVG 20010904//EN"
 "http://www.w3.org/TR/2001/REC-SVG-20010904/DTD/svg10.dtd">
<svg version="1.0" xmlns="http://www.w3.org/2000/svg"
 width="32.000000pt" height="32.000000pt" viewBox="0 0 32.000000 32.000000"
 preserveAspectRatio="xMidYMid meet">

<g transform="translate(0.000000,32.000000) scale(0.100000,-0.100000)"
fill="#000000" stroke="none">
<path d="M100 287 c0 -6 -3 -8 -6 -4 -3 3 -15 -4 -26 -15 -12 -12 -28 -18 -39
-15 -17 5 -19 0 -18 -41 0 -37 2 -43 10 -27 7 16 8 13 4 -13 -3 -23 -1 -31 7
-26 8 5 9 2 5 -11 -5 -12 2 -27 26 -49 18 -17 22 -22 8 -11 l-26 20 24 -27
c13 -15 26 -27 30 -26 20 2 31 -4 25 -14 -4 -7 -3 -8 4 -4 6 4 21 2 33 -5 17
-9 20 -8 14 2 -6 9 -3 11 9 6 10 -4 15 -3 11 3 -5 9 7 14 26 12 4 -1 17 11 30
26 l24 27 -26 -20 c-14 -11 -10 -6 8 11 24 22 31 37 26 49 -4 13 -3 16 5 11 8
-5 10 3 7 26 -4 26 -3 29 4 13 8 -16 10 -10 10 28 1 30 -3 46 -9 42 -14 -9
-52 4 -45 16 3 5 -2 6 -11 2 -12 -4 -15 -3 -10 5 5 8 1 10 -10 5 -10 -4 -15
-2 -11 3 4 6 -17 11 -54 11 -35 1 -59 -3 -59 -10z m1 -116 c-3 -19 -12 -36
-19 -37 -7 -1 -8 0 -2 3 5 2 10 17 10 32 0 24 9 46 16 38 1 -1 -1 -18 -5 -36z
m32 24 c-3 -9 -8 -14 -10 -11 -3 3 -2 9 2 15 9 16 15 13 8 -4z m65 3 c8 -10 2
-13 -24 -14 -18 -1 -31 3 -28 8 3 5 12 7 20 4 8 -3 14 -1 14 4 0 13 5 13 18
-2z m45 -44 c-7 -18 -12 -13 -18 16 -3 18 -2 20 10 10 8 -6 11 -18 8 -26z
m-92 -77 c-10 -9 -11 -8 -5 6 3 10 9 15 12 12 3 -3 0 -11 -7 -18z"/>
</g>
</svg>
